{"glyphs":{"0":{"ha":1185,"x_min":147,"x_max":1039,"o":"m 147 463 q 276 805 147 667 q 591 943 406 943 q 908 805 778 943 q 1039 463 1039 667 q 908 121 1039 258 q 591 -17 778 -17 q 276 121 406 -17 q 147 463 147 258 m 403 463 q 446 248 403 328 q 591 155 496 155 q 737 248 688 155 q 781 463 781 328 q 737 677 781 597 q 591 770 688 770 q 446 677 496 770 q 403 463 403 597 z "},"1":{"ha":745,"x_min":159,"x_max":565,"o":"m 159 750 l 315 926 l 507 926 l 507 69 l 565 0 l 198 0 l 256 69 l 256 750 l 159 750 z "},"2":{"ha":1118,"x_min":195,"x_max":919,"o":"m 195 0 l 195 132 q 519 469 195 218 q 648 665 648 570 q 607 749 648 720 q 503 778 566 778 q 209 650 362 778 l 209 950 l 275 872 q 573 950 415 950 q 793 890 694 950 q 918 675 918 814 q 831 469 918 559 q 646 328 784 421 q 466 180 516 241 l 861 180 l 919 250 l 919 0 l 195 0 z "},"3":{"ha":1095,"x_min":159,"x_max":908,"o":"m 159 75 l 159 272 q 311 186 223 222 q 477 149 405 149 q 593 176 548 149 q 644 271 644 210 q 397 396 644 387 l 397 542 q 554 562 490 534 q 633 675 633 597 q 582 754 633 726 q 477 778 538 778 q 182 650 332 778 l 182 950 l 239 882 q 512 950 373 950 q 755 901 654 950 q 897 685 897 833 q 837 542 897 602 q 708 467 787 489 q 844 396 790 446 q 908 245 908 334 q 762 29 908 102 q 519 -24 655 -24 q 159 75 305 -24 z "},"4":{"ha":1119,"x_min":101,"x_max":920,"o":"m 101 256 l 101 401 l 577 926 l 790 926 l 790 401 l 920 401 l 920 256 l 790 256 l 790 69 l 848 0 l 481 0 l 540 69 l 540 256 l 101 256 m 281 401 l 540 401 l 540 684 l 281 401 z "},"5":{"ha":1123,"x_min":199,"x_max":934,"o":"m 199 75 l 199 264 q 356 179 266 211 q 517 149 442 149 q 627 180 584 149 q 670 271 670 212 q 427 425 670 425 q 241 408 336 425 l 245 926 l 887 926 l 887 676 l 829 746 l 438 746 l 435 576 q 580 581 500 581 q 819 510 722 581 q 934 267 934 425 q 820 52 934 132 q 555 -24 713 -24 q 199 75 345 -24 z "},"6":{"ha":1148,"x_min":178,"x_max":975,"o":"m 178 399 q 343 786 178 625 q 722 994 485 925 l 833 774 l 741 814 q 419 479 433 715 q 656 561 513 561 q 880 492 793 561 q 975 282 975 415 q 867 65 975 154 q 597 -24 758 -24 q 277 115 393 -24 q 178 399 178 233 m 435 342 q 489 196 432 253 q 591 149 536 149 q 705 189 664 149 q 741 282 741 227 q 701 372 741 339 q 597 406 660 406 q 435 342 501 406 z "},"7":{"ha":1022,"x_min":197,"x_max":888,"o":"m 197 676 l 197 926 l 888 926 l 888 743 l 503 0 l 227 0 l 687 746 l 255 746 l 197 676 z "},"8":{"ha":1218,"x_min":201,"x_max":1016,"o":"m 201 254 q 368 476 201 403 q 223 701 223 554 q 317 872 223 803 q 608 950 423 950 q 898 872 792 950 q 992 701 992 803 q 834 482 992 567 q 1016 254 1016 404 q 861 29 1016 103 q 608 -24 748 -24 q 356 29 467 -24 q 201 254 201 103 m 446 260 q 495 180 446 212 q 608 149 544 149 q 723 179 675 149 q 770 260 770 210 q 709 350 770 314 q 608 380 658 380 q 508 350 557 380 q 446 260 446 314 m 459 660 q 503 578 459 614 q 608 543 547 543 q 712 578 669 543 q 756 660 756 614 q 608 778 756 778 q 459 660 459 778 z "},"9":{"ha":1147,"x_min":174,"x_max":971,"o":"m 174 644 q 282 859 174 771 q 570 950 396 950 q 876 818 765 950 q 971 547 971 705 q 350 -58 971 93 l 243 154 l 340 113 q 591 231 490 154 q 726 424 707 317 q 624 358 690 383 q 519 339 567 339 q 279 418 376 339 q 174 644 174 504 m 407 644 q 448 551 407 591 q 542 511 489 511 q 721 589 643 511 q 660 733 717 681 q 557 778 612 778 q 443 737 485 778 q 407 644 407 700 z "},"\r":{"ha":462,"x_min":0,"x_max":0,"o":""}," ":{"ha":694,"x_min":0,"x_max":0,"o":""},"$":{"ha":1222,"x_min":197,"x_max":1040,"o":"m 197 686 q 298 874 197 796 q 582 951 390 945 l 582 1040 l 656 1040 l 656 949 q 769 932 707 945 q 920 886 857 913 l 994 957 l 994 647 q 789 722 899 693 q 656 747 715 741 l 656 582 q 682 575 668 578 q 751 555 729 562 q 965 443 890 511 q 1040 271 1040 375 q 942 54 1040 134 q 656 -25 846 -23 l 656 -94 l 582 -94 l 582 -22 q 451 -1 519 -17 q 277 50 346 24 l 203 -31 l 203 313 q 427 210 310 243 q 582 179 513 185 l 582 350 q 568 354 575 352 q 490 376 522 366 q 270 497 342 428 q 197 686 197 566 m 484 689 q 499 651 484 668 q 547 620 515 633 q 582 606 565 612 l 582 749 q 515 734 541 747 q 484 689 484 717 m 656 177 q 747 250 747 184 q 734 287 747 272 q 694 315 721 302 q 656 329 675 323 l 656 177 z "},"&":{"ha":1141,"x_min":132,"x_max":1002,"o":"m 132 256 q 193 414 132 351 q 332 500 255 476 q 180 710 180 572 q 273 891 180 832 q 517 950 366 950 q 823 892 659 950 l 897 961 l 897 665 q 745 740 834 707 q 578 772 655 772 q 497 762 530 772 q 450 734 463 751 q 430 702 436 717 q 425 672 425 688 q 647 553 425 553 l 1002 553 l 944 482 l 944 82 q 773 7 886 41 q 551 -26 661 -26 q 241 56 351 -26 q 132 256 132 139 m 382 275 q 426 183 382 222 q 565 143 469 143 q 719 163 644 143 l 719 403 q 576 406 663 406 q 382 275 382 406 z "},",":{"ha":430,"x_min":95,"x_max":337,"o":"m 95 107 q 133 184 95 155 q 208 211 166 211 q 302 162 268 211 q 337 54 337 114 q 163 -192 337 -99 l 98 -131 q 226 -13 226 -71 q 126 19 158 -13 q 95 107 95 51 z "},".":{"ha":422,"x_min":97,"x_max":325,"o":"m 130 17 q 114 33 130 17 q 97 97 97 50 q 130 178 97 144 q 211 211 163 211 q 292 178 258 211 q 325 97 325 144 q 292 17 325 50 q 211 -17 258 -17 q 130 17 163 -17 z "},"A":{"ha":1335,"x_min":104,"x_max":1251,"o":"m 104 0 l 516 857 l 483 926 l 795 926 l 1251 0 l 859 0 l 918 69 l 873 167 l 431 167 l 386 69 l 444 0 l 104 0 m 498 334 l 805 334 l 651 665 l 498 334 z "},"B":{"ha":1218,"x_min":153,"x_max":1100,"o":"m 153 0 l 211 69 l 211 857 l 153 926 l 703 926 q 808 922 761 926 q 908 902 855 917 q 997 860 961 886 q 1057 787 1033 833 q 1080 677 1080 741 q 1036 556 1080 610 q 924 481 991 503 q 1050 405 1000 467 q 1100 265 1100 343 q 722 0 1100 0 l 153 0 m 481 193 l 689 193 q 787 221 761 193 q 814 296 814 249 q 781 370 814 346 q 696 393 747 393 l 481 393 l 481 193 m 481 547 l 654 547 q 766 574 737 547 q 795 645 795 602 q 768 712 795 688 q 699 737 741 737 l 481 737 l 481 547 z "},"C":{"ha":1184,"x_min":146,"x_max":1046,"o":"m 146 464 q 291 809 146 673 q 693 945 436 945 q 981 895 850 945 l 1044 956 l 1044 647 q 708 745 885 745 q 503 665 570 745 q 436 464 436 586 q 513 260 436 338 q 717 182 590 182 q 868 203 794 182 q 972 240 942 224 q 1046 283 1002 256 l 1046 66 q 885 8 991 35 q 682 -18 779 -18 q 478 9 572 -18 q 309 94 385 37 q 190 245 233 150 q 146 464 146 340 z "},"D":{"ha":1263,"x_min":153,"x_max":1139,"o":"m 153 926 l 585 926 q 699 924 650 926 q 808 910 747 921 q 914 880 869 899 q 1003 827 958 861 q 1076 745 1047 793 q 1121 626 1104 697 q 1139 467 1139 555 q 1125 327 1139 390 q 1089 219 1111 264 q 1033 138 1068 174 q 965 79 997 102 q 886 40 933 57 q 808 16 839 24 q 728 5 777 8 q 658 1 680 1 q 598 0 636 0 q 585 0 589 0 l 157 0 l 211 69 l 211 857 l 153 926 m 481 193 l 607 193 q 803 252 753 193 q 854 475 854 310 q 798 678 854 623 q 602 733 741 733 l 481 733 l 481 193 z "},"E":{"ha":1164,"x_min":153,"x_max":1025,"o":"m 153 0 l 211 69 l 211 857 l 153 926 l 1025 926 l 1025 675 l 956 733 l 481 733 l 481 555 l 782 555 l 850 614 l 850 313 l 782 371 l 481 371 l 481 193 l 956 193 l 1025 252 l 1025 0 l 153 0 z "},"F":{"ha":1108,"x_min":153,"x_max":997,"o":"m 153 0 l 211 69 l 211 857 l 153 926 l 997 926 l 997 675 l 928 733 l 481 733 l 481 555 l 764 555 l 831 614 l 831 313 l 764 371 l 481 371 l 481 69 l 540 0 l 153 0 z "},"G":{"ha":1259,"x_min":146,"x_max":1114,"o":"m 146 464 q 194 685 146 589 q 323 836 243 781 q 498 918 404 890 q 693 945 591 945 q 998 886 835 945 l 1072 956 l 1072 637 q 707 745 879 745 q 508 668 581 745 q 436 464 436 591 q 509 259 436 336 q 707 182 582 182 q 843 197 761 182 l 843 389 l 783 460 l 1114 460 l 1114 89 q 926 15 1047 47 q 693 -18 804 -18 q 488 9 583 -18 q 315 94 393 37 q 191 245 236 150 q 146 464 146 340 z "},"H":{"ha":1411,"x_min":153,"x_max":1258,"o":"m 153 0 l 211 69 l 211 857 l 153 926 l 540 926 l 481 857 l 481 555 l 929 555 l 929 857 l 871 926 l 1258 926 l 1200 857 l 1200 69 l 1258 0 l 871 0 l 929 69 l 929 371 l 481 371 l 481 69 l 540 0 l 153 0 z "},"I":{"ha":712,"x_min":159,"x_max":553,"o":"m 159 0 l 218 69 l 218 857 l 159 926 l 553 926 l 494 857 l 494 69 l 553 0 l 159 0 z "},"J":{"ha":936,"x_min":90,"x_max":804,"o":"m 90 20 l 90 274 l 163 208 q 281 180 208 180 q 469 351 469 180 l 469 857 l 410 926 l 804 926 l 746 858 l 747 858 l 747 338 q 638 64 747 146 q 319 -18 528 -18 q 90 20 202 -18 z "},"K":{"ha":1308,"x_min":153,"x_max":1218,"o":"m 153 0 l 211 69 l 211 857 l 153 926 l 540 926 l 481 857 l 481 554 l 846 869 l 797 926 l 1205 926 l 758 534 l 1218 0 l 764 0 l 819 68 l 564 366 l 481 294 l 481 69 l 540 0 l 153 0 z "},"L":{"ha":1100,"x_min":153,"x_max":997,"o":"m 153 0 l 211 69 l 211 857 l 153 926 l 540 926 l 481 857 l 481 193 l 928 193 l 997 252 l 997 0 l 153 0 z "},"M":{"ha":1569,"x_min":153,"x_max":1389,"o":"m 153 0 l 211 69 l 211 857 l 153 926 l 479 926 l 781 359 l 1055 926 l 1389 926 l 1331 857 l 1331 69 l 1389 0 l 1010 0 l 1068 69 l 1068 514 l 822 0 l 693 0 l 415 522 l 415 69 l 473 0 l 153 0 z "},"N":{"ha":1372,"x_min":153,"x_max":1192,"o":"m 153 0 l 211 69 l 211 857 l 153 926 l 448 926 l 921 390 l 921 857 l 863 926 l 1192 926 l 1133 857 l 1133 0 l 925 0 l 423 545 l 423 69 l 481 0 l 153 0 z "},"O":{"ha":1352,"x_min":141,"x_max":1211,"o":"m 141 464 q 172 649 141 566 q 254 787 202 732 q 376 879 307 842 q 521 933 446 917 q 677 950 597 950 q 832 933 758 950 q 977 879 907 917 q 1098 787 1046 842 q 1180 649 1149 732 q 1211 464 1211 566 q 1180 279 1211 363 q 1098 140 1149 196 q 977 47 1046 85 q 832 -7 907 9 q 677 -24 758 -24 q 482 4 574 -24 q 312 87 390 32 q 188 240 234 143 q 141 464 141 338 m 492 674 q 461 637 492 674 q 431 464 431 599 q 492 253 431 329 q 677 176 552 176 q 861 253 802 176 q 920 464 920 329 q 677 750 920 750 q 492 674 552 750 z "},"P":{"ha":1206,"x_min":153,"x_max":1088,"o":"m 153 0 l 211 69 l 211 857 l 153 926 l 651 926 q 768 920 712 926 q 884 892 823 913 q 988 838 944 871 q 1060 749 1031 806 q 1088 619 1088 693 q 1052 443 1088 515 q 948 335 1015 371 q 807 284 880 298 q 643 269 734 269 l 481 269 l 481 69 l 540 0 l 153 0 m 481 453 l 612 453 q 760 486 712 453 q 807 603 807 518 q 763 704 807 675 q 637 733 718 733 l 481 733 l 481 453 z "},"Q":{"ha":1343,"x_min":133,"x_max":1202,"o":"m 133 464 q 163 649 133 566 q 246 787 194 732 q 368 879 298 842 q 513 933 437 917 q 669 950 589 950 q 824 933 749 950 q 969 879 899 917 q 1090 787 1038 842 q 1172 649 1141 732 q 1202 464 1202 566 q 1172 279 1202 363 q 1090 140 1141 196 q 1012 73 1055 103 l 1194 -111 l 914 -111 l 820 -8 q 669 -24 747 -24 q 474 4 566 -24 q 304 87 382 32 q 179 240 226 143 q 133 464 133 338 m 484 674 q 453 637 484 674 q 423 464 423 599 q 484 253 423 329 q 651 177 539 182 l 537 301 l 789 301 l 846 243 q 853 253 850 248 q 912 464 912 329 q 669 750 912 750 q 484 674 544 750 z "},"R":{"ha":1234,"x_min":153,"x_max":1131,"o":"m 153 0 l 211 69 l 211 857 l 153 926 l 730 926 q 1002 849 916 926 q 1088 646 1088 772 q 1032 476 1088 549 q 879 366 976 404 l 1131 0 l 718 0 l 777 69 l 598 332 l 481 332 l 481 69 l 540 0 l 153 0 m 481 505 l 658 505 q 767 541 724 505 q 811 627 811 576 q 776 707 811 681 q 692 733 741 733 l 481 733 l 481 505 z "},"S":{"ha":1135,"x_min":146,"x_max":989,"o":"m 146 686 q 246 874 146 796 q 562 951 346 951 q 718 932 629 951 q 868 886 806 913 l 942 957 l 942 647 q 737 722 847 693 q 550 750 627 750 q 463 733 494 750 q 432 689 432 717 q 448 651 432 668 q 496 620 464 633 q 555 596 528 606 q 630 575 583 587 q 700 555 677 562 q 914 443 839 511 q 989 271 989 375 q 890 54 989 134 q 593 -25 791 -25 q 399 -1 504 -25 q 225 50 294 24 l 151 -31 l 151 313 q 376 210 258 243 q 581 176 493 176 q 696 250 696 176 q 683 287 696 272 q 642 314 669 302 q 588 334 615 326 q 516 354 561 342 q 439 376 471 366 q 218 497 290 428 q 146 686 146 566 z "},"T":{"ha":1135,"x_min":111,"x_max":1023,"o":"m 111 675 l 111 926 l 1023 926 l 1023 675 l 955 733 l 702 733 l 702 69 l 760 0 l 373 0 l 431 69 l 431 733 l 178 733 l 111 675 z "},"U":{"ha":1308,"x_min":132,"x_max":1176,"o":"m 132 926 l 522 926 l 463 857 l 463 345 q 654 180 463 180 q 844 345 844 180 l 844 857 l 786 926 l 1176 926 l 1118 857 l 1118 336 q 1007 64 1118 146 q 654 -18 897 -18 q 300 64 411 -18 q 190 336 190 146 l 190 857 l 132 926 z "},"V":{"ha":1241,"x_min":90,"x_max":1152,"o":"m 90 926 l 479 926 l 420 857 l 646 347 l 879 857 l 821 926 l 1152 926 l 715 0 l 522 0 l 90 926 z "},"W":{"ha":1643,"x_min":109,"x_max":1533,"o":"m 109 926 l 458 926 l 401 857 l 559 347 l 726 926 l 959 926 l 1139 347 l 1284 857 l 1226 926 l 1533 926 l 1232 0 l 997 0 l 823 551 l 654 0 l 418 0 l 109 926 z "},"X":{"ha":1258,"x_min":102,"x_max":1155,"o":"m 102 0 l 480 450 l 102 926 l 548 926 l 492 860 l 651 654 l 822 857 l 764 926 l 1155 926 l 780 488 l 1155 0 l 728 0 l 786 69 l 608 286 l 423 68 l 480 0 l 102 0 z "},"Y":{"ha":1304,"x_min":100,"x_max":1205,"o":"m 100 926 l 497 926 l 439 857 l 675 482 l 933 857 l 875 926 l 1205 926 l 782 290 l 782 69 l 840 0 l 451 0 l 509 69 l 509 285 l 100 926 z "},"Z":{"ha":1196,"x_min":157,"x_max":1067,"o":"m 157 0 l 157 157 l 690 727 l 227 727 l 157 669 l 157 926 l 1067 926 l 1067 767 l 534 193 l 998 193 l 1067 252 l 1067 0 l 157 0 z "},"a":{"ha":1335,"x_min":104,"x_max":1251,"o":"m 104 0 l 516 857 l 483 926 l 795 926 l 1251 0 l 859 0 l 918 69 l 873 167 l 431 167 l 386 69 l 444 0 l 104 0 m 498 334 l 805 334 l 651 665 l 498 334 z "},"b":{"ha":1218,"x_min":153,"x_max":1100,"o":"m 153 0 l 211 69 l 211 857 l 153 926 l 703 926 q 808 922 761 926 q 908 902 855 917 q 997 860 961 886 q 1057 787 1033 833 q 1080 677 1080 741 q 1036 556 1080 610 q 924 481 991 503 q 1050 405 1000 467 q 1100 265 1100 343 q 722 0 1100 0 l 153 0 m 481 193 l 689 193 q 787 221 761 193 q 814 296 814 249 q 781 370 814 346 q 696 393 747 393 l 481 393 l 481 193 m 481 547 l 654 547 q 766 574 737 547 q 795 645 795 602 q 768 712 795 688 q 699 737 741 737 l 481 737 l 481 547 z "},"c":{"ha":1184,"x_min":146,"x_max":1046,"o":"m 146 464 q 291 809 146 673 q 693 945 436 945 q 981 895 850 945 l 1044 956 l 1044 647 q 708 745 885 745 q 503 665 570 745 q 436 464 436 586 q 513 260 436 338 q 717 182 590 182 q 868 203 794 182 q 972 240 942 224 q 1046 283 1002 256 l 1046 66 q 885 8 991 35 q 682 -18 779 -18 q 478 9 572 -18 q 309 94 385 37 q 190 245 233 150 q 146 464 146 340 z "},"d":{"ha":1263,"x_min":153,"x_max":1139,"o":"m 153 926 l 585 926 q 699 924 650 926 q 808 910 747 921 q 914 880 869 899 q 1003 827 958 861 q 1076 745 1047 793 q 1121 626 1104 697 q 1139 467 1139 555 q 1125 327 1139 390 q 1089 219 1111 264 q 1033 138 1068 174 q 965 79 997 102 q 886 40 933 57 q 808 16 839 24 q 728 5 777 8 q 658 1 680 1 q 598 0 636 0 q 585 0 589 0 l 157 0 l 211 69 l 211 857 l 153 926 m 481 193 l 607 193 q 803 252 753 193 q 854 475 854 310 q 798 678 854 623 q 602 733 741 733 l 481 733 l 481 193 z "},"e":{"ha":1164,"x_min":153,"x_max":1025,"o":"m 153 0 l 211 69 l 211 857 l 153 926 l 1025 926 l 1025 675 l 956 733 l 481 733 l 481 555 l 782 555 l 850 614 l 850 313 l 782 371 l 481 371 l 481 193 l 956 193 l 1025 252 l 1025 0 l 153 0 z "},"f":{"ha":1108,"x_min":153,"x_max":997,"o":"m 153 0 l 211 69 l 211 857 l 153 926 l 997 926 l 997 675 l 927 733 l 481 733 l 481 555 l 764 555 l 831 614 l 831 313 l 764 371 l 481 371 l 481 69 l 540 0 l 153 0 z "},"g":{"ha":1259,"x_min":146,"x_max":1114,"o":"m 146 464 q 194 685 146 589 q 323 836 243 781 q 498 918 404 890 q 693 945 591 945 q 998 886 835 945 l 1072 956 l 1072 637 q 707 745 879 745 q 508 668 581 745 q 436 464 436 591 q 509 259 436 336 q 707 182 582 182 q 843 197 761 182 l 843 389 l 783 460 l 1114 460 l 1114 89 q 926 15 1047 47 q 693 -18 804 -18 q 488 9 583 -18 q 315 94 393 37 q 191 245 236 150 q 146 464 146 340 z "},"h":{"ha":1411,"x_min":153,"x_max":1258,"o":"m 153 0 l 211 69 l 211 857 l 153 926 l 540 926 l 481 857 l 481 555 l 929 555 l 929 857 l 871 926 l 1258 926 l 1200 857 l 1200 69 l 1258 0 l 871 0 l 929 69 l 929 371 l 481 371 l 481 69 l 540 0 l 153 0 z "},"i":{"ha":712,"x_min":159,"x_max":553,"o":"m 159 0 l 218 69 l 218 857 l 159 926 l 553 926 l 494 857 l 494 69 l 553 0 l 159 0 z "},"j":{"ha":936,"x_min":90,"x_max":804,"o":"m 90 20 l 90 274 l 163 208 q 281 180 208 180 q 469 351 469 180 l 469 857 l 410 926 l 804 926 l 746 858 l 747 858 l 747 338 q 638 64 747 146 q 319 -18 528 -18 q 90 20 202 -18 z "},"k":{"ha":1308,"x_min":153,"x_max":1218,"o":"m 153 0 l 211 69 l 211 857 l 153 926 l 540 926 l 481 857 l 481 554 l 846 869 l 797 926 l 1205 926 l 758 534 l 1218 0 l 764 0 l 819 68 l 564 366 l 481 294 l 481 69 l 540 0 l 153 0 z "},"l":{"ha":1100,"x_min":153,"x_max":997,"o":"m 153 0 l 211 69 l 211 857 l 153 926 l 540 926 l 481 857 l 481 193 l 928 193 l 997 252 l 997 0 l 153 0 z "},"m":{"ha":1569,"x_min":153,"x_max":1389,"o":"m 153 0 l 211 69 l 211 857 l 153 926 l 479 926 l 781 359 l 1055 926 l 1389 926 l 1331 857 l 1331 69 l 1389 0 l 1010 0 l 1068 69 l 1068 514 l 822 0 l 693 0 l 415 522 l 415 69 l 473 0 l 153 0 z "},"n":{"ha":1372,"x_min":153,"x_max":1192,"o":"m 153 0 l 211 69 l 211 857 l 153 926 l 448 926 l 921 390 l 921 857 l 863 926 l 1192 926 l 1133 857 l 1133 0 l 925 0 l 423 545 l 423 69 l 481 0 l 153 0 z "},"o":{"ha":1352,"x_min":141,"x_max":1211,"o":"m 141 464 q 172 649 141 566 q 254 787 202 732 q 376 879 307 842 q 521 933 446 917 q 677 950 597 950 q 832 933 758 950 q 977 879 907 917 q 1098 787 1046 842 q 1180 649 1149 732 q 1211 464 1211 566 q 1180 279 1211 363 q 1098 140 1149 196 q 977 47 1046 85 q 832 -7 907 9 q 677 -24 758 -24 q 482 4 574 -24 q 312 87 390 32 q 188 240 234 143 q 141 464 141 338 m 492 674 q 461 637 492 674 q 431 464 431 599 q 492 253 431 329 q 677 176 552 176 q 861 253 802 176 q 920 464 920 329 q 677 750 920 750 q 492 674 552 750 z "},"p":{"ha":1206,"x_min":153,"x_max":1088,"o":"m 153 0 l 211 69 l 211 857 l 153 926 l 651 926 q 768 920 712 926 q 884 892 823 913 q 988 838 944 871 q 1060 749 1031 806 q 1088 619 1088 693 q 1052 443 1088 515 q 948 335 1015 371 q 807 284 880 298 q 643 269 734 269 l 481 269 l 481 69 l 540 0 l 153 0 m 481 453 l 612 453 q 760 486 712 453 q 807 603 807 518 q 763 704 807 675 q 637 733 718 733 l 481 733 l 481 453 z "},"q":{"ha":1343,"x_min":133,"x_max":1202,"o":"m 133 464 q 163 649 133 566 q 246 787 194 732 q 368 879 298 842 q 513 933 437 917 q 669 950 589 950 q 824 933 749 950 q 969 879 899 917 q 1090 787 1038 842 q 1172 649 1141 732 q 1202 464 1202 566 q 1172 279 1202 363 q 1090 140 1141 196 q 1012 73 1055 103 l 1194 -111 l 914 -111 l 820 -8 q 669 -24 747 -24 q 474 4 566 -24 q 304 87 382 32 q 179 240 226 143 q 133 464 133 338 m 484 674 q 453 637 484 674 q 423 464 423 599 q 484 253 423 329 q 651 177 539 182 l 537 301 l 789 301 l 846 243 q 853 253 850 248 q 912 464 912 329 q 669 750 912 750 q 484 674 544 750 z "},"r":{"ha":1234,"x_min":153,"x_max":1131,"o":"m 153 0 l 211 69 l 211 857 l 153 926 l 730 926 q 1002 849 916 926 q 1088 646 1088 772 q 1032 476 1088 549 q 879 366 976 404 l 1131 0 l 718 0 l 777 69 l 598 332 l 481 332 l 481 69 l 540 0 l 153 0 m 481 505 l 658 505 q 767 541 724 505 q 811 627 811 576 q 776 707 811 681 q 692 733 741 733 l 481 733 l 481 505 z "},"s":{"ha":1135,"x_min":146,"x_max":989,"o":"m 146 686 q 246 874 146 796 q 562 951 346 951 q 718 932 629 951 q 868 886 806 913 l 942 957 l 942 647 q 737 722 847 693 q 550 750 627 750 q 463 733 494 750 q 432 689 432 717 q 448 651 432 668 q 496 620 464 633 q 555 596 528 606 q 630 575 583 587 q 700 555 677 562 q 914 443 839 511 q 989 271 989 375 q 890 54 989 134 q 593 -25 791 -25 q 399 -1 504 -25 q 225 50 294 24 l 151 -31 l 151 313 q 376 210 258 243 q 581 176 493 176 q 696 250 696 176 q 683 287 696 272 q 642 314 669 302 q 588 334 615 326 q 516 354 561 342 q 439 376 471 366 q 218 497 290 428 q 146 686 146 566 z "},"t":{"ha":1135,"x_min":111,"x_max":1023,"o":"m 111 675 l 111 926 l 1023 926 l 1023 675 l 955 733 l 702 733 l 702 69 l 760 0 l 373 0 l 431 69 l 431 733 l 178 733 l 111 675 z "},"u":{"ha":1308,"x_min":132,"x_max":1176,"o":"m 132 926 l 522 926 l 463 857 l 463 345 q 654 180 463 180 q 844 345 844 180 l 844 857 l 786 926 l 1176 926 l 1118 857 l 1118 336 q 1007 64 1118 146 q 654 -18 897 -18 q 300 64 411 -18 q 190 336 190 146 l 190 857 l 132 926 z "},"v":{"ha":1241,"x_min":90,"x_max":1152,"o":"m 90 926 l 479 926 l 420 857 l 646 347 l 879 857 l 821 926 l 1152 926 l 715 0 l 522 0 l 90 926 z "},"w":{"ha":1643,"x_min":109,"x_max":1533,"o":"m 109 926 l 458 926 l 401 857 l 559 347 l 726 926 l 959 926 l 1139 347 l 1284 857 l 1226 926 l 1533 926 l 1232 0 l 997 0 l 823 551 l 654 0 l 418 0 l 109 926 z "},"x":{"ha":1258,"x_min":102,"x_max":1155,"o":"m 102 0 l 480 450 l 102 926 l 548 926 l 492 860 l 651 654 l 822 857 l 764 926 l 1155 926 l 780 488 l 1155 0 l 728 0 l 786 69 l 608 286 l 423 68 l 480 0 l 102 0 z "},"y":{"ha":1304,"x_min":100,"x_max":1205,"o":"m 100 926 l 497 926 l 439 857 l 675 482 l 933 857 l 875 926 l 1205 926 l 782 290 l 782 69 l 840 0 l 451 0 l 509 69 l 509 285 l 100 926 z "},"z":{"ha":1196,"x_min":157,"x_max":1067,"o":"m 157 0 l 157 157 l 690 727 l 227 727 l 157 669 l 157 926 l 1067 926 l 1067 767 l 534 193 l 998 193 l 1067 252 l 1067 0 l 157 0 z "}," ":{"ha":694,"x_min":0,"x_max":0,"o":""}," ":{"ha":520,"x_min":0,"x_max":0,"o":""}," ":{"ha":1040,"x_min":0,"x_max":0,"o":""}," ":{"ha":520,"x_min":0,"x_max":0,"o":""}," ":{"ha":1040,"x_min":0,"x_max":0,"o":""}," ":{"ha":347,"x_min":0,"x_max":0,"o":""}," ":{"ha":260,"x_min":0,"x_max":0,"o":""}," ":{"ha":173,"x_min":0,"x_max":0,"o":""}," ":{"ha":173,"x_min":0,"x_max":0,"o":""}," ":{"ha":130,"x_min":0,"x_max":0,"o":""}," ":{"ha":208,"x_min":0,"x_max":0,"o":""}," ":{"ha":58,"x_min":0,"x_max":0,"o":""}," ":{"ha":208,"x_min":0,"x_max":0,"o":""}," ":{"ha":260,"x_min":0,"x_max":0,"o":""},"◼":{"ha":926,"x_min":0,"x_max":926,"o":"m 0 0 l 0 926 l 926 926 l 926 0 l 0 0 z "}}}
